<svg width="88" height="88" viewBox="0 0 88 88" fill="none" xmlns="http://www.w3.org/2000/svg">
<path d="M43.9995 11.7155L43.4322 11.3242L29.2543 1.54576C29.2539 1.54553 29.2536 1.54531 29.2533 1.54508C28.3808 0.946583 27.2599 0.829466 26.2835 1.23303C25.3109 1.63503 24.6065 2.5052 24.4098 3.55054C24.4097 3.5512 24.4095 3.55186 24.4094 3.55252L21.2991 20.4786L21.1746 21.1561L20.4973 21.2813L3.5702 24.4089C3.56979 24.409 3.56939 24.4091 3.56898 24.4091C2.52329 24.6056 1.6528 25.3102 1.2507 26.283C0.847101 27.2595 0.964282 28.3806 1.56294 29.2531C1.5631 29.2533 1.56327 29.2535 1.56344 29.2538L11.3252 43.4324L11.716 44L11.3247 44.5672L1.54625 58.7452C1.54601 58.7455 1.54578 58.7458 1.54555 58.7462C0.947068 59.6186 0.829959 60.7396 1.23351 61.7159C1.63909 62.6972 2.51254 63.4079 3.5411 63.5879L3.54946 63.5894L3.54945 63.5894L20.4791 66.7003L21.1573 66.8249L21.2819 67.5031L24.3922 84.4292C24.3923 84.4298 24.3924 84.4304 24.3925 84.431C24.5892 85.4765 25.2937 86.3467 26.2663 86.7487C27.2431 87.1525 28.3645 87.0351 29.2371 86.436L43.4334 76.6739L44.0008 76.2837L44.5677 76.6747L58.7457 86.4532C58.7459 86.4533 58.7461 86.4535 58.7463 86.4536C59.6188 87.0523 60.7399 87.1695 61.7164 86.7659C62.6892 86.3638 63.3938 85.4934 63.5903 84.4478C63.5904 84.4473 63.5905 84.4469 63.5905 84.4464L66.7008 67.5203L66.8254 66.8421L67.5036 66.7175L84.4297 63.6072C84.4302 63.6071 84.4306 63.6071 84.4311 63.607C85.4767 63.4105 86.3472 62.7059 86.7492 61.7331C87.1529 60.7564 87.0356 59.6349 86.4365 58.7624L76.6744 44.5661L76.2842 43.9986L76.6752 43.4317L86.4537 29.2538C86.4538 29.2536 86.454 29.2534 86.4541 29.2531C87.0528 28.3806 87.17 27.2595 86.7664 26.283C86.3644 25.3104 85.4941 24.6059 84.4487 24.4093C84.4481 24.4091 84.4475 24.409 84.4469 24.4089L67.5208 21.2986L66.8433 21.1741L66.7182 20.4968L63.5905 3.56971C63.5904 3.56911 63.5903 3.56852 63.5902 3.56793C63.3936 2.52249 62.6891 1.65224 61.7164 1.25021C60.7401 0.846667 59.6192 0.963763 58.7467 1.56221L43.9995 11.7155ZM43.9995 11.7155L44.567 11.3247L58.7457 1.56295L43.9995 11.7155ZM45.7701 18.0823L45.7667 18.0846C44.7005 18.8258 43.2995 18.8258 42.2332 18.0846L42.2299 18.0823L30.9549 10.3135L29.6833 9.43738L29.404 10.9561L26.929 24.4139L26.9289 24.4141C26.6946 25.6902 25.6907 26.6941 24.4146 26.9284L24.4144 26.9285L10.9566 29.4035L9.43787 29.6828L10.314 30.9544L18.0828 42.2294L18.0851 42.2328C18.8263 43.299 18.8263 44.7 18.0851 45.7662L18.0828 45.7696L10.314 57.0446L9.43787 58.3162L10.9566 58.5955L24.4144 61.0705L24.4146 61.0705C25.6907 61.3049 26.6946 62.3088 26.9289 63.5848L26.929 63.585L29.404 77.0429L29.6833 78.5616L30.9549 77.6854L42.2299 69.9167L42.2332 69.9143C43.2995 69.1732 44.7005 69.1732 45.7667 69.9143L45.7701 69.9167L57.0451 77.6854L58.3167 78.5616L58.596 77.0429L61.071 63.585L61.071 63.5848C61.3054 62.3088 62.3093 61.3049 63.5853 61.0705L63.5855 61.0705L77.0433 58.5955L78.5621 58.3162L77.6859 57.0446L69.9172 45.7696L69.9148 45.7662C69.1737 44.7 69.1737 43.299 69.9148 42.2328L69.9172 42.2294L77.6859 30.9544L78.5621 29.6828L77.0433 29.4035L63.5855 26.9285L63.5853 26.9284C62.3093 26.6941 61.3054 25.6902 61.071 24.4141L61.071 24.4139L58.596 10.9561L58.3167 9.43738L57.0451 10.3135L45.7701 18.0823ZM56.9047 56.9042C53.4821 60.3267 48.8402 62.2495 44 62.2495C39.1598 62.2495 34.5178 60.3267 31.0953 56.9042C27.6727 53.4816 25.75 48.8397 25.75 43.9995C25.75 39.1593 27.6727 34.5173 31.0953 31.0948C34.5178 27.6722 39.1598 25.7495 44 25.7495C48.8402 25.7495 53.4821 27.6722 56.9047 31.0948C60.3272 34.5173 62.25 39.1593 62.25 43.9995C62.25 48.8397 60.3272 53.4816 56.9047 56.9042ZM35.5147 35.5142C33.2643 37.7646 32 40.8169 32 43.9995C32 47.1821 33.2643 50.2343 35.5147 52.4848C37.7651 54.7352 40.8174 55.9995 44 55.9995C47.1826 55.9995 50.2348 54.7352 52.4852 52.4848C54.7357 50.2343 56 47.1821 56 43.9995C56 40.8169 54.7357 37.7646 52.4852 35.5142C50.2348 33.2638 47.1826 31.9995 44 31.9995C40.8174 31.9995 37.7651 33.2638 35.5147 35.5142Z" fill="#CDF0F0" stroke="#2E4369" stroke-width="2"/>
</svg>
