<svg width="108" height="77" viewBox="0 0 108 77" fill="none" xmlns="http://www.w3.org/2000/svg">
<path d="M89.7854 33.1486L89.3665 34.2494L90.5206 34.4842C99.9137 36.3953 107 44.7738 107 54.8125C107 66.2802 97.7718 75.5625 86.4 75.5625H24.3C11.4432 75.5625 1 65.0568 1 52.0938C1 41.8559 7.50774 33.1533 16.5676 29.944L17.2601 29.6987L17.2331 28.9646C17.2161 28.5027 17.2 28.0623 17.2 27.625C17.2 13.1497 28.8413 1.4375 43.2 1.4375C52.8315 1.4375 61.2332 6.70216 65.738 14.5625L66.2734 15.4966L67.1655 14.8938C69.5711 13.2683 72.4822 12.3125 75.6 12.3125C83.985 12.3125 90.8 19.1649 90.8 27.625C90.8 29.5729 90.4353 31.4407 89.7854 33.1486Z" fill="#CDF0F0" stroke="#2E4369" stroke-width="2"/>
</svg>
