<svg width="85" height="87" viewBox="0 0 85 87" fill="none" xmlns="http://www.w3.org/2000/svg">
<path d="M11.2595 23.5133L12.0735 23.2393L11.9255 22.3933C11.7351 21.3056 11.625 20.174 11.625 19.0313C11.625 9.04332 19.5165 1 29.2188 1C35.9763 1 41.8534 4.89847 44.7973 10.6509L45.4839 11.9926L46.4533 10.8385C48.7162 8.1441 52.0614 6.4375 55.7812 6.4375C62.5451 6.4375 68.0625 12.0509 68.0625 19.0313C68.0625 19.894 67.9706 20.7321 67.8141 21.5653L67.5915 22.75H68.7969H68.7974H68.7978H68.7983H68.7988H68.7993H68.7998H68.8003H68.8008H68.8013H68.8018H68.8022H68.8027H68.8032H68.8037H68.8042H68.8047H68.8052H68.8057H68.8062H68.8067H68.8072H68.8077H68.8082H68.8087H68.8092H68.8096H68.8101H68.8106H68.8111H68.8116H68.8121H68.8126H68.8131H68.8136H68.8141H68.8146H68.8151H68.8156H68.8161H68.8166H68.8171H68.8176H68.8181H68.8186H68.8191H68.8196H68.8201H68.8206H68.8211H68.8216H68.8221H68.8226H68.8232H68.8237H68.8242H68.8247H68.8252H68.8257H68.8262H68.8267H68.8272H68.8277H68.8282H68.8287H68.8292H68.8297H68.8302H68.8307H68.8313H68.8318H68.8323H68.8328H68.8333H68.8338H68.8343H68.8348H68.8353H68.8358H68.8364H68.8369H68.8374H68.8379H68.8384H68.8389H68.8394H68.84H68.8405H68.841H68.8415H68.842H68.8425H68.843H68.8436H68.8441H68.8446H68.8451H68.8456H68.8461H68.8466H68.8472H68.8477H68.8482H68.8487H68.8492H68.8498H68.8503H68.8508H68.8513H68.8518H68.8523H68.8529H68.8534H68.8539H68.8544H68.8549H68.8555H68.856H68.8565H68.857H68.8575H68.8581H68.8586H68.8591H68.8596H68.8602H68.8607H68.8612H68.8617H68.8622H68.8628H68.8633H68.8638H68.8643H68.8649H68.8654H68.8659H68.8664H68.867H68.8675H68.868H68.8685H68.8691H68.8696H68.8701H68.8706H68.8712H68.8717H68.8722H68.8727H68.8733H68.8738H68.8743H68.8748H68.8754H68.8759H68.8764H68.877H68.8775H68.878H68.8785H68.8791H68.8796H68.8801H68.8807H68.8812H68.8817H68.8822H68.8828H68.8833H68.8838H68.8844H68.8849H68.8854H68.886H68.8865H68.887H68.8875H68.8881H68.8886H68.8891H68.8897H68.8902H68.8907H68.8913H68.8918H68.8923H68.8929H68.8934H68.8939H68.8944H68.895H68.8955H68.896H68.8966H68.8971H68.8976H68.8982H68.8987H68.8992H68.8998H68.9003H68.9008H68.9014H68.9019H68.9024H68.903H68.9035H68.904H68.9046H68.9051H68.9056H68.9062H68.9067H68.9072H68.9078H68.9083H68.9088H68.9094H68.9099H68.9104H68.911H68.9115H68.912H68.9126H68.9131H68.9136H68.9142H68.9147H68.9152H68.9158H68.9163H68.9168H68.9174H68.9179H68.9185H68.919H68.9195H68.9201H68.9206H68.9211H68.9217H68.9222H68.9227H68.9233H68.9238H68.9243H68.9249H68.9254H68.9259H68.9265H68.927H68.9275H68.9281H68.9286H68.9292H68.9297H68.9302H68.9308H68.9313H68.9318H68.9324H68.9329H68.9334H68.934H68.9345H68.935H68.9356H68.9361H68.9366H68.9372H68.9377H68.9382H68.9388H68.9393H68.9398H68.9404H68.9409H68.9415H68.942H68.9425H68.9431H68.9436H68.9441H68.9447H68.9452H68.9457H68.9463H68.9468H68.9473H68.9479H68.9484H68.9489H68.9495H68.95H68.9505H68.9511H68.9516H68.9521H68.9527H68.9532H68.9537H68.9543H68.9548H68.9553H68.9559H68.9564H68.9569H68.9575H68.958H68.9585H68.9591H68.9596H68.9601H68.9607H68.9612H68.9617H68.9623H68.9628H68.9633H68.9639H68.9644H68.9649H68.9655H68.966H68.9665H68.9671H68.9676H68.9681H68.9686H68.9692H68.9697H68.9702H68.9708H68.9713H68.9718H68.9724H68.9729H68.9734H68.974H68.9745H68.975H68.9755H68.9761H68.9766H68.9771H68.9777H68.9782H68.9787H68.9792H68.9798H68.9803H68.9808H68.9814H68.9819H68.9824H68.9829H68.9835H68.984H68.9845H68.985H68.9856H68.9861H68.9866H68.9872H68.9877H68.9882H68.9887H68.9893H68.9898H68.9903H68.9908H68.9914H68.9919H68.9924H68.9929H68.9935H68.994H68.9945H68.995H68.9956H68.9961H68.9966H68.9971H68.9977H68.9982H68.9987H68.9992H68.9997H69.0003H69.0008H69.0013H69.0018H69.0023H69.0029H69.0034H69.0039H69.0044H69.005H69.0055H69.006H69.0065H69.007H69.0075H69.0081H69.0086H69.0091H69.0096H69.0101H69.0107H69.0112H69.0117H69.0122H69.0127H69.0132H69.0138H69.0143H69.0148H69.0153H69.0158H69.0163H69.0169H69.0174H69.0179H69.0184H69.0189H69.0194H69.0199H69.0204H69.021H69.0215H69.022H69.0225H69.023H69.0235H69.024H69.0245H69.0251H69.0256H69.0261H69.0266H69.0271H69.0276H69.0281H69.0286H69.0291H69.0296H69.0302H69.0307H69.0312H69.0317H69.0322H69.0327H69.0332H69.0337H69.0342H69.0347H69.0352H69.0357H69.0362H69.0367H69.0372H69.0377H69.0382H69.0387H69.0392H69.0397H69.0403H69.0408H69.0413H69.0418H69.0423H69.0428H69.0433H69.0438H69.0443H69.0448H69.0453H69.0458H69.0462H69.0468H69.0472H69.0477H69.0482H69.0487H69.0492H69.0497H69.0502H69.0507H69.0512H69.0517H69.0522H69.0527H69.0532H69.0537H69.0542H69.0547H69.0552H69.0557H69.0561H69.0566H69.0571H69.0576H69.0581H69.0586H69.0591H69.0596H69.0601H69.0606H69.061H69.0615H69.062H69.0625C77.2872 22.75 84 29.5869 84 38.0625C84 46.5381 77.2872 53.375 69.0625 53.375H15.9375C7.71275 53.375 1 46.5381 1 38.0625C1 31.2692 5.30888 25.5171 11.2595 23.5133ZM15.693 63.6777L15.6966 63.6708L15.7001 63.6639C15.7379 63.5896 15.8155 63.5313 15.9375 63.5313C16.0381 63.5313 16.1232 63.5731 16.1869 63.6869C16.1876 63.6882 16.1884 63.6896 16.1891 63.6909L22.0103 74.6568L22.0115 74.659C22.6138 75.7867 22.9229 77.035 22.9229 78.317V78.8268C22.9229 82.7995 19.7794 85.983 15.9541 85.983C12.1288 85.983 8.98535 82.7995 8.98535 78.8268V78.317C8.98535 77.032 9.29578 75.7692 9.89407 74.6639L9.89412 74.664L9.89901 74.6547L15.693 63.6777ZM42.2555 63.6777L42.2591 63.6708L42.2626 63.6639C42.3004 63.5896 42.378 63.5313 42.5 63.5313C42.6006 63.5313 42.6857 63.5731 42.7494 63.687C42.7502 63.6883 42.7509 63.6896 42.7516 63.6909L48.5728 74.6568L48.574 74.659C49.1763 75.7867 49.4854 77.035 49.4854 78.317V78.8268C49.4854 82.7995 46.3419 85.983 42.5166 85.983C38.6913 85.983 35.5479 82.7995 35.5479 78.8268V78.317C35.5479 77.032 35.8583 75.7692 36.4566 74.6639L36.4566 74.664L36.4615 74.6547L42.2555 63.6777ZM63.8181 73.1879H63.7695L68.8169 63.6798L68.8211 63.6719L68.8251 63.6639C68.8629 63.5896 68.9405 63.5313 69.0625 63.5313C69.1631 63.5313 69.2482 63.5731 69.3119 63.687C69.3127 63.6883 69.3134 63.6896 69.3141 63.6909L75.1353 74.6568L75.1365 74.659C75.7388 75.7867 76.0479 77.035 76.0479 78.317V78.8268C76.0479 82.7995 72.9044 85.983 69.0791 85.983C65.2538 85.983 62.1104 82.7995 62.1104 78.8268V78.317C62.1104 77.032 62.4208 75.7692 63.0191 74.6639L63.8181 73.1879Z" fill="#CDF0F0" stroke="#2E4369" stroke-width="2"/>
</svg>
