<svg width="89" height="87" viewBox="0 0 89 87" fill="none" xmlns="http://www.w3.org/2000/svg">
<path d="M11.7614 23.5176L12.5971 23.2489L12.4389 22.3854C12.24 21.2999 12.125 20.171 12.125 19.0313C12.125 9.08668 20.3645 1 30.5938 1C37.7119 1 43.8771 4.92169 46.9561 10.6676L47.6367 11.9379L48.5884 10.8557C50.9604 8.1585 54.4795 6.4375 58.4062 6.4375C65.5587 6.4375 71.3125 12.0943 71.3125 19.0313C71.3125 19.8906 71.2167 20.7258 71.0532 21.557L70.8185 22.75H72.0344H72.0349H72.0354H72.0359H72.0364H72.0369H72.0374H72.0379H72.0385H72.039H72.0395H72.04H72.0405H72.041H72.0415H72.0421H72.0426H72.0431H72.0436H72.0441H72.0446H72.0452H72.0457H72.0462H72.0467H72.0472H72.0477H72.0483H72.0488H72.0493H72.0498H72.0503H72.0509H72.0514H72.0519H72.0524H72.053H72.0535H72.054H72.0545H72.055H72.0556H72.0561H72.0566H72.0571H72.0577H72.0582H72.0587H72.0592H72.0598H72.0603H72.0608H72.0614H72.0619H72.0624H72.0629H72.0635H72.064H72.0645H72.0651H72.0656H72.0661H72.0667H72.0672H72.0677H72.0682H72.0688H72.0693H72.0698H72.0704H72.0709H72.0714H72.072H72.0725H72.073H72.0736H72.0741H72.0746H72.0752H72.0757H72.0763H72.0768H72.0773H72.0779H72.0784H72.0789H72.0795H72.08H72.0806H72.0811H72.0816H72.0822H72.0827H72.0832H72.0838H72.0843H72.0849H72.0854H72.0859H72.0865H72.087H72.0876H72.0881H72.0887H72.0892H72.0897H72.0903H72.0908H72.0914H72.0919H72.0925H72.093H72.0935H72.0941H72.0946H72.0952H72.0957H72.0963H72.0968H72.0974H72.0979H72.0984H72.099H72.0995H72.1001H72.1006H72.1012H72.1017H72.1023H72.1028H72.1034H72.1039H72.1045H72.105H72.1056H72.1061H72.1067H72.1072H72.1078H72.1083H72.1089H72.1094H72.11H72.1105H72.1111H72.1116H72.1122H72.1127H72.1133H72.1138H72.1144H72.1149H72.1155H72.116H72.1166H72.1171H72.1177H72.1182H72.1188H72.1193H72.1199H72.1204H72.121H72.1215H72.1221H72.1227H72.1232H72.1238H72.1243H72.1249H72.1254H72.126H72.1265H72.1271H72.1276H72.1282H72.1288H72.1293H72.1299H72.1304H72.131H72.1315H72.1321H72.1326H72.1332H72.1338H72.1343H72.1349H72.1354H72.136H72.1365H72.1371H72.1376H72.1382H72.1388H72.1393H72.1399H72.1404H72.141H72.1416H72.1421H72.1427H72.1432H72.1438H72.1443H72.1449H72.1455H72.146H72.1466H72.1471H72.1477H72.1483H72.1488H72.1494H72.1499H72.1505H72.151H72.1516H72.1522H72.1527H72.1533H72.1538H72.1544H72.155H72.1555H72.1561H72.1566H72.1572H72.1578H72.1583H72.1589H72.1594H72.16H72.1606H72.1611H72.1617H72.1622H72.1628H72.1634H72.1639H72.1645H72.165H72.1656H72.1662H72.1667H72.1673H72.1678H72.1684H72.169H72.1695H72.1701H72.1706H72.1712H72.1718H72.1723H72.1729H72.1734H72.174H72.1746H72.1751H72.1757H72.1762H72.1768H72.1774H72.1779H72.1785H72.179H72.1796H72.1802H72.1807H72.1813H72.1818H72.1824H72.183H72.1835H72.1841H72.1846H72.1852H72.1858H72.1863H72.1869H72.1874H72.188H72.1886H72.1891H72.1897H72.1902H72.1908H72.1914H72.1919H72.1925H72.193H72.1936H72.1942H72.1947H72.1953H72.1958H72.1964H72.1969H72.1975H72.1981H72.1986H72.1992H72.1997H72.2003H72.2009H72.2014H72.202H72.2025H72.2031H72.2036H72.2042H72.2048H72.2053H72.2059H72.2064H72.207H72.2076H72.2081H72.2087H72.2092H72.2098H72.2103H72.2109H72.2114H72.212H72.2126H72.2131H72.2137H72.2142H72.2148H72.2153H72.2159H72.2165H72.217H72.2176H72.2181H72.2187H72.2192H72.2198H72.2203H72.2209H72.2215H72.222H72.2226H72.2231H72.2237H72.2242H72.2248H72.2253H72.2259H72.2264H72.227H72.2275H72.2281H72.2286H72.2292H72.2298H72.2303H72.2309H72.2314H72.232H72.2325H72.2331H72.2336H72.2342H72.2347H72.2353H72.2358H72.2364H72.2369H72.2375H72.238H72.2386H72.2391H72.2397H72.2402H72.2408H72.2413H72.2419H72.2424H72.243H72.2435H72.244H72.2446H72.2451H72.2457H72.2462H72.2468H72.2473H72.2479H72.2484H72.249H72.2495H72.2501H72.2506H72.2512H72.2517H72.2522H72.2528H72.2533H72.2539H72.2544H72.255H72.2555H72.2561H72.2566H72.2571H72.2577H72.2582H72.2588H72.2593H72.2598H72.2604H72.2609H72.2615H72.262H72.2626H72.2631H72.2636H72.2642H72.2647H72.2652H72.2658H72.2663H72.2669H72.2674H72.2679H72.2685H72.269H72.2695H72.2701H72.2706H72.2712H72.2717H72.2722H72.2728H72.2733H72.2738H72.2744H72.2749H72.2754H72.276H72.2765H72.277H72.2776H72.2781H72.2786H72.2792H72.2797H72.2802H72.2808H72.2813H72.2818H72.2823H72.2829H72.2834H72.2839H72.2845H72.285H72.2855H72.286H72.2866H72.2871H72.2876H72.2882H72.2887H72.2892H72.2897H72.2903H72.2908H72.2913H72.2918H72.2924H72.2929H72.2934H72.2939H72.2944H72.295H72.2955H72.296H72.2965H72.2971H72.2976H72.2981H72.2986H72.2991H72.2996H72.3002H72.3007H72.3012H72.3017H72.3022H72.3028H72.3033H72.3038H72.3043H72.3048H72.3053H72.3058H72.3064H72.3069H72.3074H72.3079H72.3084H72.3089H72.3094H72.31H72.3105H72.311H72.3115H72.312H72.3125C80.9947 22.75 88 29.6302 88 38.0625C88 46.4948 80.9947 53.375 72.3125 53.375H16.6875C8.00535 53.375 1 46.4948 1 38.0625C1 31.2989 5.4942 25.5331 11.7614 23.5176ZM16.3807 63.6947L16.3846 63.6876L16.3883 63.6806C16.4253 63.611 16.5192 63.5313 16.6875 63.5313C16.8331 63.5313 16.935 63.5942 16.9995 63.704C17.0003 63.7053 17.0011 63.7067 17.0018 63.708L23.0968 74.6737L23.0981 74.676C23.7273 75.8011 24.0486 77.0433 24.0486 78.317V78.8268C24.0486 82.7561 20.7806 85.983 16.7049 85.983C12.6292 85.983 9.36113 82.7561 9.36113 78.8268V78.317C9.36113 77.0403 9.68392 75.7836 10.3088 74.681L10.3089 74.681L10.3141 74.6716L16.3807 63.6947ZM44.1932 63.6947L44.1971 63.6876L44.2008 63.6806C44.2378 63.611 44.3317 63.5313 44.5 63.5313C44.6456 63.5313 44.7475 63.5942 44.812 63.704C44.8128 63.7053 44.8136 63.7067 44.8143 63.708L50.9093 74.6737L50.9106 74.676C51.5398 75.8011 51.8611 77.0433 51.8611 78.317V78.8268C51.8611 82.7561 48.5931 85.983 44.5174 85.983C40.4417 85.983 37.1736 82.7561 37.1736 78.8268V78.317C37.1736 77.0403 37.4964 75.7836 38.1213 74.681L38.1214 74.681L38.1266 74.6716L44.1932 63.6947ZM66.7801 73.1879H66.729L72.0045 63.6968L72.009 63.6887L72.0133 63.6806C72.0503 63.611 72.1442 63.5313 72.3125 63.5313C72.4581 63.5313 72.5601 63.5943 72.6246 63.7041C72.6253 63.7054 72.6261 63.7067 72.6268 63.708L78.7218 74.6737L78.7231 74.676C79.3523 75.8011 79.6736 77.0433 79.6736 78.317V78.8268C79.6736 82.7561 76.4056 85.983 72.3299 85.983C68.2542 85.983 64.9861 82.7561 64.9861 78.8268V78.317C64.9861 77.0403 65.3089 75.7836 65.9338 74.681L66.7801 73.1879Z" fill="#CDF0F0" stroke="#2E4369" stroke-width="2"/>
</svg>
