<svg width="108" height="87" viewBox="0 0 108 87" fill="none" xmlns="http://www.w3.org/2000/svg">
<path d="M51.1703 48.1893L50.8864 47.9375H50.5069H29.7C16.8432 47.9375 6.4 37.4318 6.4 24.4688C6.4 11.5057 16.8432 1 29.7 1C35.2815 1 40.3919 2.97003 44.4052 6.26168L45.0665 6.80405L45.7049 6.23488C49.3607 2.97534 54.1551 1 59.4 1C67.2969 1 74.17 5.48527 77.6165 12.0694L77.9949 12.7923L78.779 12.5667C80.3443 12.1164 81.9894 11.875 83.7 11.875C93.5868 11.875 101.6 19.9338 101.6 29.9062C101.6 39.8787 93.5868 47.9375 83.7 47.9375H79.0931H78.7136L78.4297 48.1893C74.7904 51.416 70.0288 53.375 64.8 53.375C59.5712 53.375 54.8096 51.416 51.1703 48.1893ZM47.25 63.5312H103.95C105.636 63.5312 107 64.8952 107 66.6094C107 68.3236 105.636 69.6875 103.95 69.6875H47.25C45.5644 69.6875 44.2 68.3236 44.2 66.6094C44.2 64.8952 45.5644 63.5312 47.25 63.5312ZM74.25 79.8438H93.15C94.8356 79.8438 96.2 81.2077 96.2 82.9219C96.2 84.6361 94.8356 86 93.15 86H74.25C72.5644 86 71.2 84.6361 71.2 82.9219C71.2 81.2077 72.5644 79.8438 74.25 79.8438ZM4.05 79.8438H60.75C62.4356 79.8438 63.8 81.2077 63.8 82.9219C63.8 84.6361 62.4356 86 60.75 86H4.05C2.36442 86 1 84.6361 1 82.9219C1 81.2077 2.36442 79.8438 4.05 79.8438ZM33.75 63.5312C35.4356 63.5312 36.8 64.8952 36.8 66.6094C36.8 68.3236 35.4356 69.6875 33.75 69.6875H16.2C14.5144 69.6875 13.15 68.3236 13.15 66.6094C13.15 64.8952 14.5144 63.5312 16.2 63.5312H33.75Z" fill="#CDF0F0" stroke="#2E4369" stroke-width="2"/>
</svg>
