<svg width="86" height="98" viewBox="0 0 86 98" fill="none" xmlns="http://www.w3.org/2000/svg">
<path d="M48.15 11.8863V14.2957L49.8561 12.5944L52.7354 9.72335C54.1515 8.31122 56.4347 8.31667 57.8266 9.71956C59.2319 11.1359 59.2347 13.4104 57.8342 14.792L57.8304 14.7958L48.4247 24.1747L48.1308 24.4678V24.8828V38.3387V40.0768L49.6334 39.2032L61.4193 32.3508L61.7756 32.1437L61.8825 31.7457L65.2801 19.0937L65.2806 19.0918C65.7896 17.181 67.7719 16.036 69.7017 16.5471C71.6222 17.0558 72.7648 19.0321 72.255 20.949C72.2548 20.9495 72.2547 20.9499 72.2546 20.9504L71.2574 24.6411L70.6219 26.993L72.7264 25.7658L77.2546 23.1256C77.2549 23.1254 77.2551 23.1252 77.2554 23.1251C79.7167 21.6981 82.8687 22.5339 84.2981 24.9681C85.7264 27.4006 84.9073 30.5556 82.4512 31.9803L82.4491 31.9815L77.5926 34.8143L75.5165 36.0254L77.839 36.6444L82.0044 37.7546L82.0059 37.7549C83.9269 38.2638 85.0695 40.2409 84.5588 42.1582C84.0498 44.069 82.0674 45.214 80.1377 44.7029L67.144 41.2388L66.7429 41.1319L66.3839 41.3405L54.694 48.1354L53.2066 49L54.694 49.8646L66.3839 56.6595L66.7429 56.8681L67.144 56.7612L80.1377 53.2971C82.0674 52.786 84.0498 53.931 84.5588 55.8418C85.0695 57.7591 83.9269 59.7362 82.0059 60.245L82.0044 60.2454L77.839 61.3556L75.5165 61.9746L77.5926 63.1857L82.4491 66.0185L82.4512 66.0197C84.9066 67.444 85.7279 70.5809 84.2966 73.0344C82.8694 75.4809 79.7214 76.3039 77.2565 74.8756C77.2559 74.8752 77.2552 74.8748 77.2546 74.8744L72.7264 72.2342L70.6219 71.007L71.2574 73.3589L72.2546 77.0496C72.2547 77.05 72.2548 77.0504 72.2549 77.0507C72.7649 78.9677 71.6223 80.9441 69.7017 81.4529C67.7719 81.964 65.7896 80.819 65.2806 78.9082L65.2801 78.9063L61.8825 66.2543L61.7757 65.8567L61.4199 65.6495L49.6532 58.7972L48.15 57.9218V59.6613V73.1172V73.5322L48.4439 73.8253L57.8496 83.2042C59.2642 84.6148 59.2587 86.8865 57.8534 88.2729C56.4315 89.6757 54.1456 89.6786 52.7584 88.2804L52.7546 88.2766L49.8753 85.4056L48.1692 83.7043V86.1137V91.875C48.1692 94.7079 45.8746 97 43.0267 97C40.1787 97 37.8842 94.7079 37.8842 91.875V86.1137V83.7043L36.1781 85.4056L33.2988 88.2766C31.8826 89.6888 29.5995 89.6833 28.2075 88.2804C26.8023 86.8641 26.7995 84.5896 28.2 83.208L28.2038 83.2042L37.6095 73.8253L37.9034 73.5322V73.1172V59.6613V57.9232L36.4007 58.7968L24.6148 65.6492L24.2585 65.8563L24.1517 66.2543L20.7541 78.9063L20.7536 78.9082C20.2446 80.819 18.2622 81.964 16.3325 81.4529C14.4119 80.9442 13.2693 78.9679 13.7792 77.051C13.7793 77.0505 13.7794 77.05 13.7796 77.0496L14.7768 73.3589L15.4061 71.0297L13.3136 72.2308L8.7451 74.853L8.74117 74.8553C6.2798 76.283 3.12724 75.4473 1.6977 73.0128C0.271613 70.5842 1.1035 67.4261 3.54669 65.9993C3.54681 65.9993 3.54693 65.9992 3.54704 65.9991L8.40311 63.1665L10.4793 61.9555L8.15678 61.3365L3.9914 60.2263L3.98991 60.2259C2.06886 59.7171 0.926218 57.74 1.43697 55.8226C1.94598 53.9118 3.92833 52.7669 5.85805 53.278L18.8517 56.742L19.2518 56.8487L19.6102 56.6413L31.3193 49.8655L32.8117 49.0019L31.321 48.1354L19.631 41.3405L19.2721 41.1319L18.8709 41.2388L5.87724 44.7029C3.94753 45.214 1.96518 44.069 1.45616 42.1582C0.945414 40.2409 2.08805 38.2638 4.0091 37.7549L4.01059 37.7546L8.17597 36.6444L10.4985 36.0254L8.4223 34.8143L3.56589 31.9815L3.56378 31.9803C1.10634 30.5549 0.289273 27.4185 1.71689 24.9872C3.14624 22.553 6.29813 21.7172 8.75935 23.1441C8.75969 23.1443 8.76003 23.1445 8.76037 23.1447L13.2885 25.785L15.3931 27.0121L14.7576 24.6602L13.7604 20.9695C13.7602 20.9691 13.7601 20.9686 13.76 20.9682C13.2502 19.0513 14.3927 17.075 16.3133 16.5663C18.243 16.0552 20.2254 17.2001 20.7344 19.1109L20.7349 19.1129L24.1325 31.7648L24.2394 32.1631L24.5961 32.3702L36.3628 39.2034L37.865 40.0758V38.3387V24.8637V24.448L37.5704 24.1548L28.1654 14.7958C28.1651 14.7956 28.1649 14.7953 28.1646 14.7951C26.7508 13.3844 26.7565 11.1133 28.1616 9.72711C29.5835 8.32433 31.8694 8.32143 33.2566 9.71957L33.2604 9.72335L36.1397 12.5944L37.8458 14.2957V11.8863V6.125C37.8458 3.29208 40.1403 1 42.9883 1H43.0075C45.8555 1 48.15 3.29208 48.15 6.125V11.8863Z" fill="#CDF0F0" stroke="#2E4369" stroke-width="2"/>
</svg>
