<svg width="89" height="87" viewBox="0 0 89 87" fill="none" xmlns="http://www.w3.org/2000/svg">
<path d="M61.1875 53.375H59.6424L63.9896 44.8906L63.9917 44.8864C65.9456 41.0282 64.9261 36.3649 61.4939 33.658C58.0748 30.9614 53.2187 30.9398 49.7939 33.6216C49.7938 33.6217 49.7937 33.6218 49.7936 33.6219L24.5475 53.375H16.6875C8.00535 53.375 1 46.4948 1 38.0625C1 31.2989 5.4942 25.5331 11.7614 23.5176L12.5971 23.2489L12.4389 22.3854C12.24 21.2999 12.125 20.171 12.125 19.0313C12.125 9.08668 20.3645 1 30.5938 1C37.7119 1 43.8771 4.92169 46.9561 10.6676L47.6367 11.9379L48.5884 10.8557C50.9604 8.1585 54.4795 6.4375 58.4062 6.4375C65.5587 6.4375 71.3125 12.0943 71.3125 19.0313C71.3125 19.903 71.2315 20.7321 71.057 21.5385L70.7948 22.75H72.0344H72.0349H72.0354H72.0359H72.0364H72.0369H72.0374H72.0379H72.0385H72.039H72.0395H72.04H72.0405H72.041H72.0415H72.0421H72.0426H72.0431H72.0436H72.0441H72.0446H72.0452H72.0457H72.0462H72.0467H72.0472H72.0477H72.0483H72.0488H72.0493H72.0498H72.0503H72.0509H72.0514H72.0519H72.0524H72.053H72.0535H72.054H72.0545H72.055H72.0556H72.0561H72.0566H72.0571H72.0577H72.0582H72.0587H72.0592H72.0598H72.0603H72.0608H72.0614H72.0619H72.0624H72.0629H72.0635H72.064H72.0645H72.0651H72.0656H72.0661H72.0667H72.0672H72.0677H72.0682H72.0688H72.0693H72.0698H72.0704H72.0709H72.0714H72.072H72.0725H72.073H72.0736H72.0741H72.0746H72.0752H72.0757H72.0763H72.0768H72.0773H72.0779H72.0784H72.0789H72.0795H72.08H72.0806H72.0811H72.0816H72.0822H72.0827H72.0832H72.0838H72.0843H72.0849H72.0854H72.0859H72.0865H72.087H72.0876H72.0881H72.0887H72.0892H72.0897H72.0903H72.0908H72.0914H72.0919H72.0925H72.093H72.0935H72.0941H72.0946H72.0952H72.0957H72.0963H72.0968H72.0974H72.0979H72.0984H72.099H72.0995H72.1001H72.1006H72.1012H72.1017H72.1023H72.1028H72.1034H72.1039H72.1045H72.105H72.1056H72.1061H72.1067H72.1072H72.1078H72.1083H72.1089H72.1094H72.11H72.1105H72.1111H72.1116H72.1122H72.1127H72.1133H72.1138H72.1144H72.1149H72.1155H72.116H72.1166H72.1171H72.1177H72.1182H72.1188H72.1193H72.1199H72.1204H72.121H72.1215H72.1221H72.1227H72.1232H72.1238H72.1243H72.1249H72.1254H72.126H72.1265H72.1271H72.1276H72.1282H72.1288H72.1293H72.1299H72.1304H72.131H72.1315H72.1321H72.1326H72.1332H72.1338H72.1343H72.1349H72.1354H72.136H72.1365H72.1371H72.1376H72.1382H72.1388H72.1393H72.1399H72.1404H72.141H72.1416H72.1421H72.1427H72.1432H72.1438H72.1443H72.1449H72.1455H72.146H72.1466H72.1471H72.1477H72.1483H72.1488H72.1494H72.1499H72.1505H72.151H72.1516H72.1522H72.1527H72.1533H72.1538H72.1544H72.155H72.1555H72.1561H72.1566H72.1572H72.1578H72.1583H72.1589H72.1594H72.16H72.1606H72.1611H72.1617H72.1622H72.1628H72.1634H72.1639H72.1645H72.165H72.1656H72.1662H72.1667H72.1673H72.1678H72.1684H72.169H72.1695H72.1701H72.1706H72.1712H72.1718H72.1723H72.1729H72.1734H72.174H72.1746H72.1751H72.1757H72.1762H72.1768H72.1774H72.1779H72.1785H72.179H72.1796H72.1802H72.1807H72.1813H72.1818H72.1824H72.183H72.1835H72.1841H72.1846H72.1852H72.1858H72.1863H72.1869H72.1874H72.188H72.1886H72.1891H72.1897H72.1902H72.1908H72.1914H72.1919H72.1925H72.193H72.1936H72.1942H72.1947H72.1953H72.1958H72.1964H72.1969H72.1975H72.1981H72.1986H72.1992H72.1997H72.2003H72.2009H72.2014H72.202H72.2025H72.2031H72.2036H72.2042H72.2048H72.2053H72.2059H72.2064H72.207H72.2076H72.2081H72.2087H72.2092H72.2098H72.2103H72.2109H72.2114H72.212H72.2126H72.2131H72.2137H72.2142H72.2148H72.2153H72.2159H72.2165H72.217H72.2176H72.2181H72.2187H72.2192H72.2198H72.2203H72.2209H72.2215H72.222H72.2226H72.2231H72.2237H72.2242H72.2248H72.2253H72.2259H72.2264H72.227H72.2275H72.2281H72.2286H72.2292H72.2298H72.2303H72.2309H72.2314H72.232H72.2325H72.2331H72.2336H72.2342H72.2347H72.2353H72.2358H72.2364H72.2369H72.2375H72.238H72.2386H72.2391H72.2397H72.2402H72.2408H72.2413H72.2419H72.2424H72.243H72.2435H72.244H72.2446H72.2451H72.2457H72.2462H72.2468H72.2473H72.2479H72.2484H72.249H72.2495H72.2501H72.2506H72.2512H72.2517H72.2522H72.2528H72.2533H72.2539H72.2544H72.255H72.2555H72.2561H72.2566H72.2571H72.2577H72.2582H72.2588H72.2593H72.2598H72.2604H72.2609H72.2615H72.262H72.2626H72.2631H72.2636H72.2642H72.2647H72.2652H72.2658H72.2663H72.2669H72.2674H72.2679H72.2685H72.269H72.2695H72.2701H72.2706H72.2712H72.2717H72.2722H72.2728H72.2733H72.2738H72.2744H72.2749H72.2754H72.276H72.2765H72.277H72.2776H72.2781H72.2786H72.2792H72.2797H72.2802H72.2808H72.2813H72.2818H72.2823H72.2829H72.2834H72.2839H72.2845H72.285H72.2855H72.286H72.2866H72.2871H72.2876H72.2882H72.2887H72.2892H72.2897H72.2903H72.2908H72.2913H72.2918H72.2924H72.2929H72.2934H72.2939H72.2944H72.295H72.2955H72.296H72.2965H72.2971H72.2976H72.2981H72.2986H72.2991H72.2996H72.3002H72.3007H72.3012H72.3017H72.3022H72.3028H72.3033H72.3038H72.3043H72.3048H72.3053H72.3058H72.3064H72.3069H72.3074H72.3079H72.3084H72.3089H72.3094H72.31H72.3105H72.311H72.3115H72.312H72.3125C80.9947 22.75 88 29.6302 88 38.0625C88 46.4948 80.9947 53.375 72.3125 53.375H61.1875ZM26.6866 61.1978L26.6902 61.195L54.4971 39.4493C55.1669 38.942 56.119 38.9506 56.7597 39.4581C57.401 39.966 57.5885 40.8402 57.2232 41.5439L57.2204 41.5493L48.1119 59.3571L47.3674 60.8125H49.0021H61.2049C61.9709 60.8125 62.637 61.2846 62.8911 61.9757C63.1366 62.6435 62.9164 63.4111 62.3308 63.8647L62.3271 63.8675L34.5245 85.6099C34.5231 85.611 34.5217 85.6121 34.5202 85.6132C33.8537 86.1181 32.9147 86.1161 32.2511 85.5993C31.5982 85.0909 31.4124 84.2204 31.7768 83.5186L31.7796 83.5132L40.8881 65.7054L41.6326 64.25H39.9979H27.8125C27.0465 64.25 26.3803 63.7779 26.1263 63.0868C25.8808 62.419 26.101 61.6514 26.6866 61.1978Z" fill="#CDF0F0" stroke="#2E4369" stroke-width="2"/>
</svg>
