<svg width="77" height="87" viewBox="0 0 77 87" fill="none" xmlns="http://www.w3.org/2000/svg">
<g clip-path="url(#clip0_825_33223)">
<path d="M68.798 37.0625H12.8662C8.88734 32.9307 5.79164 28.0616 3.76373 22.75H59.6519C59.9608 24.63 60.7234 26.4285 61.9038 27.9795L61.9035 27.979L62.7 27.3744L61.9043 27.9801L68.798 37.0625ZM68.798 37.0625H70.0535M68.798 37.0625H70.0535M70.0535 37.0625L70.8125 38.0625L70.0535 37.0625ZM22.4189 44.5H73.7413C75.2196 47.6807 76 51.1532 76 54.6978C76 56.0889 75.8849 57.4668 75.6553 58.8125H45.9648C44.8307 57.7502 43.5617 56.7967 42.1981 56.0075C42.198 56.0075 42.1979 56.0074 42.1978 56.0073L22.4189 44.5ZM51.0391 66.267H73.0839C71.9535 68.3632 70.5004 70.3035 68.7688 72.0154L55.3282 85.3033C54.8632 85.763 54.2397 86.017 53.5906 86.017C52.07 86.017 50.9324 84.6613 51.174 83.2044L52.1878 77.1402C52.8047 73.4651 52.3971 69.709 51.0391 66.267ZM1 7.74844V5.4375C1 2.99291 2.99929 1 5.5 1H67.6156C69.2226 1 70.5 2.27924 70.5 3.84023C70.5 4.59254 70.1945 5.32201 69.6626 5.84785L63.0282 12.4068C62.1499 13.2751 61.438 14.2599 60.879 15.3125H1.68454C1.23237 12.8432 1 10.3096 1 7.74844Z" fill="#CDF0F0" stroke="#2E4369" stroke-width="2"/>
</g>
<defs>
<clipPath id="clip0_825_33223">
<rect width="77" height="87" fill="white"/>
</clipPath>
</defs>
</svg>
