<svg width="87" height="87" viewBox="0 0 87 87" fill="none" xmlns="http://www.w3.org/2000/svg">
<g clip-path="url(#clip0_825_33209)">
<path d="M54.375 9.875C51.9197 9.875 49.9375 7.89283 49.9375 5.4375C49.9375 2.98217 51.9197 1 54.375 1H59.8125C68.2661 1 75.125 7.85893 75.125 16.3125C75.125 24.7661 68.2661 31.625 59.8125 31.625H5.4375C2.98217 31.625 1 29.6428 1 27.1875C1 24.7322 2.98217 22.75 5.4375 22.75H59.8125C63.3724 22.75 66.25 19.8724 66.25 16.3125C66.25 12.7526 63.3724 9.875 59.8125 9.875H54.375ZM65.25 69.6875C62.7947 69.6875 60.8125 67.7053 60.8125 65.25C60.8125 62.7947 62.7947 60.8125 65.25 60.8125H70.6875C74.2474 60.8125 77.125 57.9349 77.125 54.375C77.125 50.8151 74.2474 47.9375 70.6875 47.9375H5.4375C2.98217 47.9375 1 45.9553 1 43.5C1 41.0447 2.98217 39.0625 5.4375 39.0625H70.6875C79.1411 39.0625 86 45.9214 86 54.375C86 62.8286 79.1411 69.6875 70.6875 69.6875H65.25ZM27.1875 86H21.75C19.2947 86 17.3125 84.0178 17.3125 81.5625C17.3125 79.1072 19.2947 77.125 21.75 77.125H27.1875C30.7474 77.125 33.625 74.2474 33.625 70.6875C33.625 67.1276 30.7474 64.25 27.1875 64.25H5.4375C2.98217 64.25 1 62.2678 1 59.8125C1 57.3572 2.98217 55.375 5.4375 55.375H27.1875C35.6411 55.375 42.5 62.2339 42.5 70.6875C42.5 79.1411 35.6411 86 27.1875 86Z" fill="#CDF0F0" stroke="#2E4369" stroke-width="2"/>
</g>
<defs>
<clipPath id="clip0_825_33209">
<rect width="87" height="87" fill="white"/>
</clipPath>
</defs>
</svg>
